<?xml version="1.0" encoding="utf-8"?>
<!-- Generator: Adobe Illustrator 22.1.0, SVG Export Plug-In . SVG Version: 6.00 Build 0)  -->
<svg version="1.1" id="Layer_1" xmlns="http://www.w3.org/2000/svg" xmlns:xlink="http://www.w3.org/1999/xlink" x="0px" y="0px"
	 viewBox="0 0 300 300" style="enable-background:new 0 0 300 300;" xml:space="preserve">
<g id="v1_17_">
	<g id="v1_18_">
		<g id="White_82_">
			<g>
				<path d="M150,288.4c-76.3,0-138.4-62.1-138.4-138.4S73.7,11.6,150,11.6S288.4,73.7,288.4,150S226.3,288.4,150,288.4z M150,33.5
					C85.8,33.5,33.5,85.8,33.5,150S85.8,266.5,150,266.5S266.5,214.2,266.5,150S214.2,33.5,150,33.5z"/>
				<g>
					<polygon points="197.5,267.7 173.6,163.3 152,115.8 93.7,34.5 111.5,21.7 171.1,104.8 194.5,156.3 194.7,157.4 218.9,262.8 
											"/>
					<polygon points="24.6,129 23.4,107.2 157.3,99.5 224.5,42.2 238.7,58.9 165.9,121 					"/>
					<polygon points="77,260.5 63.3,243.4 180.6,149.3 277.9,153.3 277,175.2 187.9,171.5 					"/>
				</g>
			</g>
		</g>
	</g>
</g>
</svg>
