<?xml version="1.0" encoding="utf-8"?>
<!-- Generator: Adobe Illustrator 22.1.0, SVG Export Plug-In . SVG Version: 6.00 Build 0)  -->
<svg version="1.1" id="Layer_1" xmlns="http://www.w3.org/2000/svg" xmlns:xlink="http://www.w3.org/1999/xlink" x="0px" y="0px"
	 viewBox="0 0 300 300" style="enable-background:new 0 0 300 300;" xml:space="preserve">
<style type="text/css">
	.st0{fill:#A5E3E1;}
	.st1{fill:#303351;}
</style>
<g id="v1_15_">
	<g id="v1_16_">
		<g id="White_73_">
			<path class="st0" d="M150,17.7C76.9,17.7,17.7,76.9,17.7,150c0,73.1,59.3,132.3,132.3,132.3S282.3,223.1,282.3,150
				C282.3,76.9,223.1,17.7,150,17.7z M150,257.4c-59.3,0-107.4-48.1-107.4-107.4C42.6,90.7,90.7,42.6,150,42.6S257.4,90.7,257.4,150
				C257.4,209.3,209.3,257.4,150,257.4z"/>
			<g>
				<path class="st1" d="M150,263.7c-62.7,0-113.7-51-113.7-113.7S87.3,36.3,150,36.3s113.7,51,113.7,113.7S212.7,263.7,150,263.7z
					 M150,48.8C94.2,48.8,48.8,94.2,48.8,150S94.2,251.2,150,251.2S251.2,205.8,251.2,150S205.8,48.8,150,48.8z"/>
				<path class="st1" d="M150,288.6c-76.4,0-138.6-62.2-138.6-138.6S73.6,11.4,150,11.4S288.6,73.6,288.6,150S226.4,288.6,150,288.6
					z M150,23.9C80.5,23.9,23.9,80.5,23.9,150S80.5,276.1,150,276.1S276.1,219.5,276.1,150S219.5,23.9,150,23.9z"/>
			</g>
			<g>
				<path class="st1" d="M151.6,228.9c-43.5,0-78.9-35.4-78.9-78.9s35.4-78.9,78.9-78.9s78.9,35.4,78.9,78.9
					S195.1,228.9,151.6,228.9z M151.6,83.6c-36.6,0-66.4,29.8-66.4,66.4s29.8,66.4,66.4,66.4S218,186.6,218,150
					S188.2,83.6,151.6,83.6z"/>
				<g>
					<polygon class="st1" points="178.7,217.1 165,157.6 152.7,130.5 119.4,84.1 129.6,76.8 163.6,124.2 176.9,153.6 177.1,154.2 
						190.8,214.3 					"/>
					<polygon class="st1" points="80.1,138 79.4,125.6 155.7,121.2 194,88.5 202.1,98 160.6,133.5 					"/>
					<polygon class="st1" points="109.9,213 102.1,203.3 169,149.6 224.5,151.9 224,164.4 173.2,162.3 					"/>
				</g>
			</g>
		</g>
	</g>
</g>
</svg>
