<svg xmlns="http://www.w3.org/2000/svg" viewBox="0 0 300 300"><path d="M150 288.4c-76.3 0-138.4-62.1-138.4-138.4S73.7 11.6 150 11.6 288.4 73.7 288.4 150 226.3 288.4 150 288.4zm0-254.9C85.8 33.5 33.5 85.8 33.5 150S85.8 266.5 150 266.5 266.5 214.2 266.5 150 214.2 33.5 150 33.5z"/><path d="M197.5 267.7l-23.9-104.4-21.6-47.5-58.3-81.3 17.8-12.8 59.6 83.1 23.4 51.5.2 1.1 24.2 105.4z"/><path d="M24.6 129l-1.2-21.8 133.9-7.7 67.2-57.3 14.2 16.7-72.8 62.1zM77 260.5l-13.7-17.1 117.3-94.1 97.3 4-.9 21.9-89.1-3.7z"/></svg>