<svg id="Layer_1" xmlns="http://www.w3.org/2000/svg" viewBox="0 0 300 300"><style>.st1{fill:#303351}</style><g id="v1_15_"><g id="v1_16_"><g id="White_73_"><path d="M150 17.7C76.9 17.7 17.7 76.9 17.7 150c0 73.1 59.3 132.3 132.3 132.3S282.3 223.1 282.3 150c0-73.1-59.2-132.3-132.3-132.3zm0 239.7c-59.3 0-107.4-48.1-107.4-107.4C42.6 90.7 90.7 42.6 150 42.6S257.4 90.7 257.4 150c0 59.3-48.1 107.4-107.4 107.4z" fill="#a5e3e1"/><path class="st1" d="M150 263.7c-62.7 0-113.7-51-113.7-113.7S87.3 36.3 150 36.3s113.7 51 113.7 113.7-51 113.7-113.7 113.7zm0-214.9C94.2 48.8 48.8 94.2 48.8 150S94.2 251.2 150 251.2 251.2 205.8 251.2 150 205.8 48.8 150 48.8z"/><path class="st1" d="M150 288.6c-76.4 0-138.6-62.2-138.6-138.6S73.6 11.4 150 11.4 288.6 73.6 288.6 150 226.4 288.6 150 288.6zm0-264.7C80.5 23.9 23.9 80.5 23.9 150S80.5 276.1 150 276.1 276.1 219.5 276.1 150 219.5 23.9 150 23.9z"/><g><path class="st1" d="M151.6 228.9c-43.5 0-78.9-35.4-78.9-78.9s35.4-78.9 78.9-78.9 78.9 35.4 78.9 78.9-35.4 78.9-78.9 78.9zm0-145.3c-36.6 0-66.4 29.8-66.4 66.4s29.8 66.4 66.4 66.4S218 186.6 218 150s-29.8-66.4-66.4-66.4z"/><path class="st1" d="M178.7 217.1L165 157.6l-12.3-27.1-33.3-46.4 10.2-7.3 34 47.4 13.3 29.4.2.6 13.7 60.1z"/><path class="st1" d="M80.1 138l-.7-12.4 76.3-4.4L194 88.5l8.1 9.5-41.5 35.5zM109.9 213l-7.8-9.7 66.9-53.7 55.5 2.3-.5 12.5-50.8-2.1z"/></g></g></g></g></svg>